# xmcd
# Copyright (C) 1995-1998 Ti Kan
#
# Track frame offsets:
#       150
#       94755
#       165049
#       235343
#
# Disc length: 3718 seconds
#
# Revision: 0
# Processed by: cddbd v1.5.2PL0 Copyright (c) Steve Scherf et al.
# Submitted via: CD-Transfer v1.0
#
DISCID=200e8404
DTITLE=Beiträge - 
DYEAR=1900
DGENRE=
TTITLE0=Wurlitzer 19.01. - 01
TTITLE1=Wurlitzer 19.01. - 02
TTITLE2=Wurlitzer 19.01. - 03
TTITLE3=Wurlitzer 19.01. - 04
EXTD=
EXTT0=
EXTT1=
EXTT2=
EXTT3=
PLAYORDER=
